<?xml version="1.0" encoding="iso-8859-1"?>
<!-- Generator: Adobe Illustrator 19.1.0, SVG Export Plug-In . SVG Version: 6.00 Build 0)  -->
<svg version="1.1" id="Capa_1" xmlns="http://www.w3.org/2000/svg" xmlns:xlink="http://www.w3.org/1999/xlink" x="0px" y="0px"
	 viewBox="0 0 218.333 218.333" style="enable-background:new 0 0 218.333 218.333;" xml:space="preserve">
<g>
	<g id="group-117svg">
		<path id="path-1_20_" style="fill:#FF3A2F;" d="M95.192,172.274h15.114c2.914,0,5.277,1.05,5.277,2.345
			c0,1.295-2.363,2.344-5.277,2.344h-0.704c-2.914,0-5.276,1.05-5.276,2.345s2.362,2.344,5.276,2.344h32.491
			c2.913,0,5.277,1.05,5.277,2.345s-2.364,2.345-5.277,2.345h-39.045H60.132c-2.913,0-5.276-1.05-5.276-2.345
			s2.363-2.345,5.276-2.345h9.018c2.914,0,5.277-1.049,5.277-2.344s-2.363-2.345-5.277-2.345H26.235
			c-2.914,0-5.276-1.049-5.276-2.344c0-1.295,2.362-2.345,5.276-2.345h10.143H95.192z"/>
		<path id="path-2_20_" style="fill:#FF3A2F;" d="M188.738,188.371c3.327,0,6.026-1.2,6.026-2.678s-2.699-2.676-6.026-2.676h-18.461
			c-3.328,0-6.025,1.198-6.025,2.676s2.697,2.678,6.025,2.678H188.738z"/>
		<path id="path-3_20_" style="fill:#FF3A2F;" d="M186.468,157.862h6.94c1.339,0,2.424,0.596,2.424,1.33
			c0,0.735-1.085,1.332-2.424,1.332h-0.322c-1.338,0-2.424,0.594-2.424,1.329c0,0.734,1.086,1.33,2.424,1.33h14.919
			c1.338,0,2.422,0.596,2.422,1.33c0,0.735-1.084,1.33-2.422,1.33h-17.93h-36.646c-1.338,0-2.423-0.595-2.423-1.33
			c0-0.734,1.085-1.33,2.423-1.33h4.141c1.338,0,2.422-0.596,2.422-1.33c0-0.735-1.084-1.329-2.422-1.329h-19.706
			c-1.338,0-2.423-0.597-2.423-1.332c0-0.734,1.085-1.33,2.423-1.33h4.657H186.468z"/>
		<path id="path-4_20_" style="fill:#0CB04A;" d="M178.828,83.08c-21.818,0-39.506,17.503-39.506,39.097
			c0,21.592,17.688,39.096,39.506,39.096s39.505-17.504,39.505-39.096C218.333,100.583,200.646,83.08,178.828,83.08z
			 M178.828,147.085c-13.901,0-25.169-11.152-25.169-24.908c0-13.757,11.268-24.909,25.169-24.909
			c13.901,0,25.167,11.152,25.167,24.909C203.995,135.933,192.729,147.085,178.828,147.085z"/>
		<path id="path-5_20_" style="opacity:0.35;fill:#010101;enable-background:new    ;" d="M175.345,97.535
			c-1.142-0.158-2.299-0.267-3.484-0.267c-13.9,0-25.167,11.152-25.167,24.909c0,13.756,11.267,24.908,25.167,24.908
			c1.185,0,2.342-0.11,3.484-0.266c-12.248-1.683-21.686-12.059-21.686-24.642S163.097,99.217,175.345,97.535z"/>
		<path id="path-6_20_" style="opacity:0.35;fill:#010101;enable-background:new    ;" d="M178.828,83.08
			c-1.177,0-2.334,0.075-3.483,0.174c20.183,1.748,36.021,18.493,36.021,38.923c0,20.428-15.838,37.174-36.021,38.922
			c1.149,0.099,2.306,0.174,3.483,0.174c21.818,0,39.505-17.504,39.505-39.096C218.333,100.583,200.646,83.08,178.828,83.08z"/>
		<path id="path-7_20_" style="fill:#0CB04A;" d="M39.505,83.08C17.688,83.08,0,100.583,0,122.177
			c0,21.592,17.688,39.096,39.505,39.096c21.818,0,39.505-17.504,39.505-39.096C79.01,100.583,61.323,83.08,39.505,83.08z
			 M39.505,147.085c-13.9,0-25.168-11.152-25.168-24.908c0-13.757,11.268-24.909,25.168-24.909
			c13.899,0,25.168,11.152,25.168,24.909C64.673,135.933,53.404,147.085,39.505,147.085z"/>
		<path id="path-8_20_" style="opacity:0.35;fill:#010101;enable-background:new    ;" d="M36.023,97.535
			c-1.142-0.158-2.299-0.267-3.484-0.267c-13.9,0-25.168,11.152-25.168,24.909c0,13.756,11.268,24.908,25.168,24.908
			c1.185,0,2.342-0.11,3.484-0.266c-12.248-1.683-21.686-12.059-21.686-24.642S23.775,99.217,36.023,97.535z"/>
		<path id="path-9_18_" style="opacity:0.35;fill:#010101;enable-background:new    ;" d="M39.505,83.08
			c-1.176,0-2.333,0.075-3.482,0.174c20.183,1.748,36.021,18.493,36.021,38.923c0,20.428-15.838,37.174-36.021,38.922
			c1.149,0.099,2.306,0.174,3.482,0.174c21.818,0,39.505-17.504,39.505-39.096C79.01,100.583,61.323,83.08,39.505,83.08z"/>
		<path id="path-10_16_" style="fill:#142A3B;" d="M188.714,122.177c0,5.403-4.426,9.784-9.886,9.784
			c-5.46,0-9.886-4.381-9.886-9.784s4.426-9.785,9.886-9.785C184.288,112.392,188.714,116.774,188.714,122.177z"/>
		<path id="path-11_15_" style="fill:#142A3B;" d="M48.292,124.154c0,5.403-4.427,9.784-9.886,9.784
			c-5.461,0-9.887-4.381-9.887-9.784s4.426-9.784,9.887-9.784C43.865,114.37,48.292,118.751,48.292,124.154z"/>
		<path id="path-12_14_" style="fill:#142A3B;" d="M125.826,124.154c0,5.403-4.426,9.784-9.886,9.784
			c-5.461,0-9.886-4.381-9.886-9.784s4.425-9.784,9.886-9.784C121.4,114.37,125.826,118.751,125.826,124.154z"/>
		<path id="path-13_10_" style="fill:#142A3B;" d="M118.069,125.781H31.99l44.019-70.289h82.507c2.011,0,3.638,1.616,3.638,3.606
			c0,1.991-1.627,3.605-3.638,3.605h-12.484L118.069,125.781z M45.067,118.571h68.247l24.768-55.868H80.059L45.067,118.571z"/>
		<path id="path-14_8_" style="fill:#142A3B;" d="M178.828,125.782c-1.542,0-2.974-0.977-3.469-2.509L147.3,36.141
			c-0.607-1.896,0.448-3.925,2.364-4.53c1.904-0.609,3.962,0.443,4.573,2.34l28.059,87.131c0.608,1.896-0.448,3.925-2.363,4.529
			C179.567,125.726,179.194,125.782,178.828,125.782z"/>
		<path id="path-15_7_" style="fill:#142A3B;" d="M115.695,125.782c-1.243,0-2.456-0.633-3.135-1.771L76.709,63.928
			c-1.024-1.714-0.452-3.924,1.278-4.937c1.728-1.012,3.959-0.446,4.986,1.269l35.852,60.083c1.021,1.713,0.449,3.924-1.282,4.937
			C116.963,125.62,116.324,125.782,115.695,125.782z"/>
		<path id="path-16_7_" style="fill:#142A3B;" d="M125.83,145.303c-1.233,0-2.438-0.622-3.121-1.745l-9.885-16.244
			c-1.038-1.706-0.484-3.921,1.236-4.948c1.724-1.029,3.959-0.481,4.997,1.225l9.886,16.244c1.037,1.706,0.482,3.921-1.237,4.949
			C127.116,145.135,126.469,145.303,125.83,145.303z"/>
		<path id="path-17_5_" style="fill:#142A3B;" d="M134.383,146.567H115.94c-2.012,0-3.638-1.614-3.638-3.605
			s1.626-3.605,3.638-3.605h18.443c2.011,0,3.638,1.614,3.638,3.605S136.394,146.567,134.383,146.567z"/>
		<path id="path-18_4_" style="fill:#142A3B;" d="M79.838,62.703c-2.01,0-3.638-1.614-3.638-3.605V47.313
			c0-1.991,1.628-3.604,3.638-3.604c2.012,0,3.64,1.613,3.64,3.604v11.785C83.478,61.089,81.85,62.703,79.838,62.703z"/>
		<path id="path-19_3_" style="fill:#142A3B;" d="M91.53,48.355H66.587c-2.01,0-3.638-1.614-3.638-3.606
			c0-1.99,1.628-3.604,3.638-3.604H91.53c2.012,0,3.639,1.614,3.639,3.604C95.169,46.741,93.542,48.355,91.53,48.355z"/>
		<path id="path-20_3_" style="fill:#142A3B;" d="M134.927,46.937c-2.012,0-3.64-1.614-3.64-3.604
			c0-13.112,12.673-13.112,19.482-13.112c1.453,0,2.949-0.066,4.43-0.128c5.751-0.249,11.731-0.506,15.366,2.944
			c1.859,1.764,2.801,4.19,2.801,7.21c0,1.99-1.628,3.604-3.639,3.604s-3.638-1.614-3.638-3.604c0-0.98-0.189-1.653-0.558-2.002
			c-1.387-1.321-6.174-1.116-10.018-0.951c-1.585,0.068-3.187,0.136-4.744,0.136c-10.998,0-12.204,1.889-12.204,5.903
			C138.565,45.323,136.939,46.937,134.927,46.937z"/>
	</g>
</g>
<g>
</g>
<g>
</g>
<g>
</g>
<g>
</g>
<g>
</g>
<g>
</g>
<g>
</g>
<g>
</g>
<g>
</g>
<g>
</g>
<g>
</g>
<g>
</g>
<g>
</g>
<g>
</g>
<g>
</g>
</svg>
